<svg width="48" height="48" viewBox="0 0 48 48" fill="none" xmlns="http://www.w3.org/2000/svg">
<g clip-path="url(#clip0_665_492)">
<path d="M30.4483 16.8263L33.9051 13.3695L34.1354 11.9139C27.8363 6.1861 17.8229 6.83557 12.1443 13.2691C10.5671 15.056 9.39695 17.2837 8.77295 19.5842L10.011 19.4097L16.9244 18.2695L17.4582 17.7238C20.5334 14.3464 25.7331 13.892 29.2839 16.7657L30.4483 16.8263Z" fill="#EA4335"/>
<path d="M38.8295 19.4824C38.035 16.5564 36.4036 13.926 34.1356 11.9139L29.284 16.7655C30.2951 17.5917 31.1054 18.6367 31.6538 19.8217C32.2022 21.0067 32.4743 22.3007 32.4496 23.6062V24.4674C34.8341 24.4674 36.7676 26.4006 36.7676 28.7852C36.7676 31.17 34.8343 33.0548 32.4496 33.0548H23.8017L22.9526 33.9765V39.1556L23.8017 39.9682H32.4495C38.6522 40.0165 43.7199 35.0759 43.7682 28.8732C43.7826 27.0221 43.3392 25.1962 42.4776 23.5578C41.616 21.9195 40.3628 20.5195 38.8295 19.4824Z" fill="#4285F4"/>
<path d="M15.1659 39.9683H23.8017V33.0548H15.1659C14.5545 33.0547 13.9505 32.9223 13.3951 32.6667L12.17 33.0426L8.68897 36.4994L8.38574 37.676C10.3379 39.15 12.7197 39.9789 15.1659 39.9683Z" fill="#34A853"/>
<path d="M15.1658 17.5419C8.96307 17.5787 3.9647 22.6372 4.00167 28.8401C4.01187 30.5494 4.41208 32.2338 5.1718 33.765C5.93153 35.2962 7.03074 36.6337 8.38567 37.6758L13.3951 32.6667C11.2219 31.6847 10.256 29.1271 11.2379 26.9539C12.2196 24.7807 14.7774 23.8148 16.9505 24.7966C17.9081 25.2292 18.6751 25.9963 19.1077 26.9539L24.1171 21.9445C23.0656 20.5701 21.7105 19.4575 20.1576 18.6937C18.6048 17.93 16.8963 17.5357 15.1658 17.5419Z" fill="#FBBC05"/>
</g>
<path d="M17.823 7.7037C18.1188 7.67106 18.4105 7.64255 18.7103 7.65774C18.8825 7.66614 18.9434 7.54936 18.8471 7.40914C18.3206 6.64586 17.5443 6.02746 16.7389 5.53303C14.8754 4.38998 12.3805 4.12027 10.2875 4.82625C9.25277 5.17575 8.32381 5.70878 7.50062 6.42535C6.58038 7.22652 5.81454 8.39551 5.3989 9.55232C5.29247 9.84808 5.19462 10.1727 5.10534 10.5262C4.71391 12.0725 4.82684 13.5982 5.44412 15.103C5.50453 15.25 5.58734 15.2811 5.69253 15.1963C5.70426 15.1868 5.71404 15.1752 5.72134 15.1621C5.86079 14.9202 6.0195 14.6747 6.20965 14.4775C6.26478 14.42 6.2818 14.3596 6.26069 14.2964C6.02865 13.6057 5.85925 13.0326 5.86699 12.3135C5.87627 11.5132 5.99903 10.6502 6.29118 9.89514C6.92204 8.26493 7.9017 7.03195 9.45027 6.19325C10.9775 5.36572 12.9111 5.16213 14.5617 5.66396C15.72 6.0158 16.9572 6.69278 17.7097 7.65603C17.7229 7.67287 17.7402 7.68607 17.76 7.69441C17.7798 7.70274 17.8015 7.70594 17.823 7.7037Z" stroke="#1D1F26" stroke-width="2"/>
<path d="M17.814 10.013L17.4708 9.45642C17.4676 9.45131 17.4634 9.44693 17.4585 9.44353C17.4535 9.44013 17.4478 9.43778 17.4419 9.43665C17.4359 9.43551 17.4297 9.4356 17.4237 9.43692C17.4177 9.43823 17.412 9.44074 17.407 9.44428C17.0027 9.73365 16.5776 9.99307 16.0912 10.1177C15.5748 10.2497 14.7866 10.2356 14.2885 10.2795C13.0794 10.385 12.0142 10.8413 11.093 11.6482C10.8409 11.8692 10.6656 12.0505 10.5671 12.192C9.84875 13.224 9.22693 14.4212 7.9492 14.8674C7.942 14.8699 7.93542 14.8738 7.92993 14.8791C7.92444 14.8843 7.92018 14.8907 7.91745 14.8977C7.91472 14.9048 7.9136 14.9123 7.91416 14.9198C7.91472 14.9273 7.91696 14.9345 7.9207 14.941L8.24722 15.5096C8.2524 15.5187 8.26068 15.5256 8.27062 15.5291C8.28055 15.5326 8.2915 15.5326 8.30156 15.529C8.98293 15.277 9.54547 14.8677 9.98917 14.3011C10.5383 13.5999 10.9815 12.7449 11.7087 12.1257C12.4804 11.468 13.3608 11.1066 14.3499 11.0414C15.1249 10.9899 15.6276 10.9451 15.8579 10.9069C16.5763 10.7875 17.226 10.5028 17.8068 10.0528C17.8213 10.0417 17.8237 10.0284 17.814 10.013Z" stroke="#1D1F26" stroke-width="2"/>
<path d="M10.4144 19.9704C10.3619 19.8481 10.3074 19.7383 10.2509 19.6411C9.18938 17.8176 8.13157 15.9902 7.07745 14.1589C7.06853 14.1435 7.05632 14.1404 7.04081 14.1498C6.58643 14.4288 6.23585 14.789 5.98908 15.2303C4.34944 18.1639 7.32045 21.3225 10.3657 20.086C10.3767 20.0815 10.3866 20.075 10.395 20.0668C10.4034 20.0585 10.4101 20.0487 10.4146 20.038C10.4191 20.0272 10.4214 20.0157 10.4214 20.0041C10.4214 19.9925 10.419 19.981 10.4144 19.9704Z" stroke="#1D1F26" stroke-width="2"/>
<path d="M20.6555 14.1403C22.3069 12.8733 22.5215 10.5969 21.1569 9.06615C20.4415 8.26411 19.5137 7.89868 18.3735 7.96985C17.9899 7.9939 17.6181 8.09568 17.258 8.27519C17.248 8.28029 17.239 8.28736 17.2317 8.29596C17.2244 8.30456 17.219 8.31451 17.2157 8.3252C17.2124 8.33589 17.2113 8.3471 17.2126 8.35813C17.2138 8.36916 17.2173 8.37979 17.2228 8.38937L20.5298 14.1162C20.5358 14.1266 20.544 14.1356 20.5538 14.1426C20.5636 14.1496 20.5749 14.1544 20.5868 14.1567C20.5987 14.159 20.611 14.1587 20.6228 14.1559C20.6347 14.1531 20.6458 14.1478 20.6555 14.1403Z" stroke="#1D1F26" stroke-width="2"/>
<path d="M18.1659 11.5211C18.2685 11.4347 18.3746 11.3499 18.484 11.267C18.4983 11.2563 18.5011 11.2434 18.4924 11.2283L18.1446 10.6125C18.1353 10.5965 18.1226 10.5929 18.1065 10.6019C18.0383 10.6401 17.967 10.6983 17.8927 10.7766C17.3015 11.3988 16.5143 11.5526 15.6923 11.6081C14.9706 11.657 14.173 11.7363 13.5221 11.9611C12.3438 12.3675 11.5713 13.1848 10.9132 14.2035C10.6108 14.6713 10.3439 15.0603 10.0142 15.366C9.78289 15.5808 9.48119 15.7637 9.10908 15.9148C8.95825 15.9763 8.76266 16.0053 8.59384 16.0724C8.5898 16.074 8.58614 16.0764 8.58313 16.0796C8.58011 16.0827 8.5778 16.0864 8.57635 16.0905C8.5749 16.0946 8.57435 16.099 8.57473 16.1033C8.57511 16.1076 8.57642 16.1118 8.57856 16.1156L8.94717 16.7561C8.95525 16.7701 8.96706 16.7742 8.9826 16.7683C9.58945 16.5368 10.1936 16.2638 10.6367 15.7784C10.9138 15.475 11.1801 15.1335 11.4357 14.754C11.7522 14.2845 11.9377 14.0169 11.9924 13.9511C12.5618 13.2649 13.2788 12.8065 14.1432 12.5759C14.3612 12.5177 14.6969 12.4614 15.1505 12.407C15.5908 12.3541 15.9636 12.3158 16.2689 12.2923C16.9889 12.2368 17.6212 11.9798 18.1659 11.5211Z" stroke="#1D1F26" stroke-width="2"/>
<path d="M17.0997 13.634C17.9577 13.5281 18.6028 13.0956 19.1964 12.4795C19.21 12.4654 19.2119 12.45 19.2021 12.4331L18.8993 11.8962C18.8932 11.8855 18.8849 11.8763 18.8749 11.8691C18.8649 11.862 18.8535 11.857 18.8413 11.8547C18.8292 11.8524 18.8167 11.8528 18.8047 11.8557C18.7926 11.8587 18.7814 11.8643 18.7717 11.872C18.6719 11.95 18.5865 12.0133 18.5033 12.1068C18.0665 12.5999 17.5178 12.8735 16.8575 12.9276C15.368 13.0502 13.835 13.124 12.7078 14.2725C12.211 14.7785 11.7703 15.3407 11.3937 15.9393C10.9118 16.7048 10.2133 17.1534 9.29803 17.2851C9.27654 17.2881 9.2711 17.2989 9.2817 17.3172L9.64196 17.9515C9.6468 17.9602 9.65442 17.9671 9.66365 17.971C9.67288 17.9749 9.68319 17.9757 9.693 17.9733C10.6753 17.7372 11.4377 17.2108 11.9803 16.3939C12.2283 16.0203 12.4634 15.692 12.6856 15.4091C13.4673 14.413 14.4917 13.866 15.7589 13.7682C16.207 13.7337 16.654 13.689 17.0997 13.634Z" stroke="#1D1F26" stroke-width="2"/>
<path d="M14.074 16.0863C14.7519 15.5184 15.5488 15.2018 16.4644 15.1363C16.8236 15.1104 17.1824 15.0807 17.5407 15.0471C17.6982 15.0323 17.8436 15.0107 17.977 14.9823C18.7315 14.82 19.429 14.3031 19.9485 13.7502C19.9603 13.7379 19.9616 13.7247 19.9523 13.7107C19.8554 13.5634 19.7637 13.413 19.677 13.2594C19.6198 13.1583 19.5363 13.0742 19.4316 13.1889C19.0755 13.577 18.7064 13.9457 18.2342 14.1472C17.7069 14.3729 17.0551 14.3628 16.4968 14.4048C16.0391 14.4398 15.7018 14.4824 15.4848 14.5327C14.6734 14.7213 13.9241 15.0881 13.3732 15.729C13.1426 15.9974 12.9198 16.2426 12.7142 16.5461C12.4288 16.9667 12.0532 17.4727 11.7452 17.7741C11.2785 18.2318 10.6758 18.4521 10.0379 18.5529C10.0351 18.5533 10.0324 18.5544 10.0301 18.5561C10.0278 18.5577 10.026 18.5599 10.0247 18.5625C10.0235 18.5651 10.0228 18.5679 10.0229 18.5708C10.023 18.5736 10.0237 18.5764 10.0251 18.579L10.3841 19.2244C10.3876 19.2304 10.3931 19.2352 10.3995 19.238C10.406 19.2407 10.4133 19.2413 10.4202 19.2397C10.867 19.1327 11.3326 18.9781 11.7137 18.7429C12.3974 18.3208 12.8112 17.6966 13.2562 17.0527C13.5239 16.6661 13.7659 16.3446 14.074 16.0863Z" stroke="#1D1F26" stroke-width="2"/>
<path d="M20.1458 14.5099C20.0766 14.5231 20.0211 14.5442 19.9796 14.5733C19.7069 14.7622 19.4266 14.9384 19.1386 15.102C19.1241 15.1103 19.1128 15.1219 19.1048 15.1366C19.0093 15.3124 18.9674 15.5348 18.9103 15.6767C18.1955 17.4638 16.7226 18.6394 14.8829 19.1654C13.9656 19.428 13.0369 19.4503 12.0968 19.2323C12.0776 19.2278 12.0593 19.2302 12.0418 19.2395L10.9746 19.8015C10.9681 19.805 10.963 19.8107 10.9603 19.8176C10.9575 19.8245 10.9573 19.8322 10.9597 19.8392C10.9856 19.9169 11.0648 19.9289 11.1335 19.9528C13.1288 20.656 15.3567 20.2872 17.1377 19.1493C18.8026 18.085 19.9489 16.4061 20.2443 14.4735C20.2449 14.4694 20.2442 14.4653 20.2423 14.4616C20.2404 14.458 20.2374 14.4551 20.2336 14.4533C20.2299 14.4516 20.2257 14.451 20.2216 14.4518C20.2175 14.4526 20.2138 14.4547 20.211 14.4578L20.1798 14.4909C20.1703 14.5011 20.159 14.5074 20.1458 14.5099Z" stroke="#1D1F26" stroke-width="2"/>
<path d="M18.7103 7.65774C18.4105 7.64255 18.1188 7.67106 17.823 7.7037C17.8015 7.70594 17.7798 7.70274 17.76 7.69441C17.7402 7.68607 17.7229 7.67287 17.7097 7.65603C16.9572 6.69278 15.72 6.0158 14.5617 5.66396C12.9111 5.16213 10.9775 5.36572 9.45027 6.19325C7.9017 7.03195 6.92204 8.26493 6.29118 9.89514C5.99903 10.6502 5.87627 11.5132 5.86699 12.3135C5.85925 13.0326 6.02865 13.6057 6.26069 14.2964C6.2818 14.3596 6.26478 14.42 6.20965 14.4775C6.0195 14.6747 5.86079 14.9202 5.72134 15.1621C5.71404 15.1752 5.70426 15.1868 5.69253 15.1963C5.58734 15.2811 5.50453 15.25 5.44412 15.103C4.82684 13.5982 4.71391 12.0725 5.10534 10.5262C5.19462 10.1727 5.29247 9.84808 5.3989 9.55232C5.81454 8.39551 6.58038 7.22652 7.50062 6.42535C8.32381 5.70878 9.25277 5.17575 10.2875 4.82625C12.3805 4.12027 14.8754 4.38998 16.7389 5.53303C17.5443 6.02746 18.3206 6.64586 18.8471 7.40914C18.9434 7.54936 18.8825 7.66614 18.7103 7.65774Z" fill="white"/>
<path d="M17.4708 9.45648L17.814 10.0131C17.8237 10.0285 17.8213 10.0417 17.8068 10.0528C17.226 10.5028 16.5763 10.7875 15.8579 10.907C15.6276 10.9452 15.1249 10.99 14.3499 11.0415C13.3608 11.1067 12.4804 11.4681 11.7087 12.1257C10.9815 12.7449 10.5383 13.6 9.98917 14.3012C9.54547 14.8678 8.98293 15.2771 8.30156 15.529C8.2915 15.5327 8.28055 15.5327 8.27062 15.5292C8.26068 15.5256 8.2524 15.5187 8.24722 15.5097L7.9207 14.9411C7.91696 14.9346 7.91472 14.9274 7.91416 14.9199C7.9136 14.9124 7.91472 14.9048 7.91745 14.8978C7.92018 14.8908 7.92444 14.8844 7.92993 14.8791C7.93542 14.8739 7.942 14.8699 7.9492 14.8675C9.22693 14.4212 9.84875 13.2241 10.5671 12.1921C10.6656 12.0505 10.8409 11.8693 11.093 11.6483C12.0142 10.8413 13.0794 10.3851 14.2885 10.2796C14.7866 10.2357 15.5748 10.2498 16.0912 10.1177C16.5776 9.99313 17.0027 9.73371 17.407 9.44435C17.412 9.4408 17.4177 9.43829 17.4237 9.43698C17.4297 9.43566 17.4359 9.43557 17.4419 9.43671C17.4478 9.43785 17.4535 9.44019 17.4585 9.44359C17.4634 9.44699 17.4676 9.45138 17.4708 9.45648Z" fill="white"/>
<path d="M10.4144 19.9704C10.419 19.981 10.4214 19.9924 10.4214 20.004C10.4214 20.0156 10.4191 20.0271 10.4146 20.0379C10.4101 20.0487 10.4034 20.0585 10.395 20.0667C10.3866 20.075 10.3767 20.0815 10.3657 20.0859C7.32045 21.3224 4.34944 18.1639 5.98908 15.2302C6.23585 14.789 6.58643 14.4288 7.04081 14.1497C7.05632 14.1404 7.06853 14.1434 7.07745 14.1589C8.13157 15.9902 9.18938 17.8175 10.2509 19.6411C10.3074 19.7382 10.3619 19.848 10.4144 19.9704Z" fill="white"/>
<path d="M20.6555 14.1403C20.6458 14.1478 20.6347 14.1531 20.6228 14.1559C20.611 14.1587 20.5987 14.159 20.5868 14.1567C20.5749 14.1544 20.5636 14.1496 20.5538 14.1426C20.544 14.1356 20.5358 14.1266 20.5298 14.1162L17.2228 8.38937C17.2173 8.37979 17.2138 8.36916 17.2126 8.35813C17.2113 8.3471 17.2124 8.33589 17.2157 8.3252C17.219 8.31451 17.2244 8.30456 17.2317 8.29596C17.239 8.28736 17.248 8.28029 17.258 8.27519C17.6181 8.09568 17.9899 7.9939 18.3735 7.96985C19.5137 7.89868 20.4415 8.26411 21.1569 9.06615C22.5215 10.5969 22.3069 12.8733 20.6555 14.1403Z" fill="white"/>
<path d="M18.1659 11.5211C17.6212 11.9798 16.9889 12.2368 16.2689 12.2923C15.9636 12.3158 15.5908 12.3541 15.1505 12.407C14.6969 12.4614 14.3612 12.5177 14.1432 12.5759C13.2788 12.8065 12.5618 13.2649 11.9924 13.9511C11.9377 14.0169 11.7522 14.2845 11.4357 14.754C11.1801 15.1335 10.9138 15.475 10.6367 15.7784C10.1936 16.2638 9.58945 16.5368 8.9826 16.7683C8.96706 16.7742 8.95525 16.7701 8.94717 16.7561L8.57856 16.1156C8.57642 16.1118 8.57511 16.1076 8.57473 16.1033C8.57435 16.099 8.5749 16.0946 8.57635 16.0905C8.5778 16.0864 8.58011 16.0827 8.58313 16.0796C8.58614 16.0764 8.5898 16.074 8.59384 16.0724C8.76266 16.0053 8.95825 15.9763 9.10908 15.9148C9.48119 15.7637 9.78289 15.5808 10.0142 15.366C10.3439 15.0603 10.6108 14.6713 10.9132 14.2035C11.5713 13.1848 12.3438 12.3675 13.5221 11.9611C14.173 11.7363 14.9706 11.657 15.6923 11.6081C16.5143 11.5526 17.3015 11.3988 17.8927 10.7766C17.967 10.6983 18.0383 10.6401 18.1065 10.6019C18.1226 10.5929 18.1353 10.5965 18.1446 10.6125L18.4924 11.2283C18.5011 11.2434 18.4983 11.2563 18.484 11.267C18.3746 11.3499 18.2685 11.4347 18.1659 11.5211Z" fill="white"/>
<path d="M17.0997 13.634C16.654 13.689 16.207 13.7337 15.7589 13.7682C14.4917 13.866 13.4673 14.413 12.6856 15.4091C12.4634 15.692 12.2283 16.0203 11.9803 16.3939C11.4377 17.2108 10.6753 17.7372 9.693 17.9733C9.68319 17.9757 9.67288 17.9749 9.66365 17.971C9.65442 17.9671 9.6468 17.9602 9.64196 17.9515L9.2817 17.3172C9.2711 17.2989 9.27654 17.2881 9.29803 17.2851C10.2133 17.1534 10.9118 16.7048 11.3937 15.9393C11.7703 15.3407 12.211 14.7785 12.7078 14.2725C13.835 13.124 15.368 13.0502 16.8575 12.9276C17.5178 12.8735 18.0665 12.5999 18.5033 12.1068C18.5865 12.0133 18.6719 11.95 18.7717 11.872C18.7814 11.8643 18.7926 11.8587 18.8047 11.8557C18.8167 11.8528 18.8292 11.8524 18.8413 11.8547C18.8535 11.857 18.8649 11.862 18.8749 11.8691C18.8849 11.8763 18.8932 11.8855 18.8993 11.8962L19.2021 12.4331C19.2119 12.45 19.21 12.4654 19.1964 12.4795C18.6028 13.0956 17.9577 13.5281 17.0997 13.634Z" fill="white"/>
<path d="M14.074 16.0864C13.7659 16.3447 13.5239 16.6662 13.2562 17.0528C12.8112 17.6967 12.3974 18.3209 11.7137 18.743C11.3326 18.9782 10.867 19.1327 10.4202 19.2398C10.4133 19.2414 10.406 19.2408 10.3995 19.238C10.3931 19.2353 10.3876 19.2305 10.3841 19.2244L10.0251 18.579C10.0237 18.5765 10.023 18.5737 10.0229 18.5708C10.0228 18.568 10.0235 18.5651 10.0247 18.5626C10.026 18.56 10.0278 18.5578 10.0301 18.5561C10.0324 18.5544 10.0351 18.5534 10.0379 18.553C10.6758 18.4522 11.2785 18.2319 11.7452 17.7742C12.0532 17.4728 12.4288 16.9668 12.7142 16.5462C12.9198 16.2427 13.1426 15.9975 13.3732 15.7291C13.9241 15.0882 14.6734 14.7214 15.4848 14.5327C15.7018 14.4825 16.0391 14.4398 16.4968 14.4048C17.0551 14.3628 17.7069 14.373 18.2342 14.1472C18.7064 13.9457 19.0755 13.577 19.4316 13.189C19.5363 13.0743 19.6198 13.1584 19.677 13.2595C19.7637 13.413 19.8554 13.5635 19.9523 13.7108C19.9616 13.7248 19.9603 13.738 19.9485 13.7503C19.429 14.3031 18.7315 14.8201 17.977 14.9823C17.8436 15.0108 17.6982 15.0324 17.5407 15.0471C17.1824 15.0807 16.8236 15.1105 16.4644 15.1364C15.5488 15.2019 14.7519 15.5185 14.074 16.0864Z" fill="white"/>
<path d="M20.1798 14.4909L20.211 14.4578C20.2138 14.4547 20.2175 14.4526 20.2216 14.4518C20.2257 14.451 20.2299 14.4516 20.2336 14.4533C20.2374 14.4551 20.2404 14.458 20.2423 14.4616C20.2442 14.4653 20.2449 14.4694 20.2443 14.4735C19.9489 16.4061 18.8026 18.085 17.1377 19.1493C15.3567 20.2872 13.1288 20.656 11.1335 19.9528C11.0648 19.9289 10.9856 19.9169 10.9597 19.8392C10.9573 19.8322 10.9575 19.8245 10.9603 19.8176C10.963 19.8107 10.9681 19.805 10.9746 19.8015L12.0418 19.2395C12.0593 19.2302 12.0776 19.2278 12.0968 19.2323C13.0369 19.4503 13.9656 19.428 14.8829 19.1654C16.7226 18.6394 18.1955 17.4638 18.9103 15.6767C18.9674 15.5348 19.0093 15.3124 19.1048 15.1366C19.1128 15.1219 19.1241 15.1103 19.1386 15.102C19.4266 14.9384 19.7069 14.7622 19.9796 14.5733C20.0211 14.5442 20.0766 14.5231 20.1458 14.5099C20.159 14.5074 20.1703 14.5011 20.1798 14.4909Z" fill="white"/>
<defs>
<clipPath id="clip0_665_492">
<rect width="39.77" height="32" fill="white" transform="translate(4 8)"/>
</clipPath>
</defs>
</svg>
